<svg width="46" height="49" viewBox="0 0 46 49" fill="none" xmlns="http://www.w3.org/2000/svg">
<path fill-rule="evenodd" clip-rule="evenodd" d="M42.6925 23.6462C42.2326 23.7238 41.9221 24.1598 41.9997 24.6206C42.183 25.7039 42.2755 26.7938 42.2755 27.8622C42.2755 33.8218 39.6193 39.2011 35.3395 42.7828C34.592 37.9297 31.1464 34.0373 26.5709 32.6443C28.39 31.4309 29.5928 29.3633 29.5928 27.0167C29.5928 23.2862 26.5584 20.2526 22.8288 20.2526C19.0991 20.2526 16.0647 23.2862 16.0647 27.0167C16.0647 29.3633 17.2675 31.4309 19.0866 32.6443C14.5111 34.0373 11.0655 37.9297 10.318 42.7828C6.03827 39.2011 3.38201 33.8218 3.38201 27.8622C3.38201 26.7938 3.47449 25.7039 3.65779 24.6206C3.7354 24.1598 3.42494 23.7238 2.96503 23.6462C2.49439 23.567 2.06833 23.8791 1.98989 24.3398C1.79172 25.514 1.69098 26.6996 1.69098 27.8622C1.69098 38.2462 9.10737 47.0101 19.3253 48.7011C19.3716 48.7094 19.4186 48.7127 19.4641 48.7127C19.8703 48.7127 20.2286 48.4187 20.2972 48.0059C20.374 47.5451 20.0619 47.1092 19.6011 47.0332C16.752 46.5616 14.1455 45.4844 11.8882 43.9563C12.2961 38.2184 17.0118 33.7808 22.8288 33.7808C28.6457 33.7808 33.3614 38.2184 33.7693 43.9563C31.5121 45.4844 28.9056 46.5616 26.0564 47.0332C25.5957 47.1092 25.2836 47.5451 25.3603 48.0059C25.4289 48.4187 25.7872 48.7127 26.1935 48.7127C26.2389 48.7127 26.2859 48.7094 26.3322 48.7011C36.5502 47.0101 43.9665 38.2462 43.9665 27.8622C43.9665 26.6996 43.8658 25.514 43.6676 24.3398C43.5892 23.8791 43.1582 23.5653 42.6925 23.6462ZM17.7557 27.0167C17.7557 24.2193 20.0313 21.9436 22.8288 21.9436C25.6262 21.9436 27.9018 24.2193 27.9018 27.0167C27.9018 29.8142 25.6262 32.0898 22.8288 32.0898C20.0313 32.0898 17.7557 29.8142 17.7557 27.0167Z" fill="white"/>
<path fill-rule="evenodd" clip-rule="evenodd" d="M32.0881 6.68812C31.9882 6.38097 31.724 6.15803 31.4053 6.11179L26.0027 5.32738L23.5868 0.431012C23.3027 -0.143671 22.3548 -0.143671 22.0708 0.431012L19.6548 5.32738L14.2523 6.11179C13.9336 6.15803 13.6693 6.38097 13.5694 6.68812C13.4703 6.99363 13.5529 7.33051 13.7833 7.5551L17.6929 11.3649L16.7698 16.7451C16.7153 17.0638 16.8458 17.3842 17.1059 17.5724C17.3676 17.7623 17.7119 17.7904 17.9968 17.6368L22.8288 15.0953L27.6607 17.6368C27.7846 17.7029 27.92 17.7343 28.0546 17.7343C28.2296 17.7343 28.4039 17.6798 28.5517 17.5724C28.8117 17.3842 28.9422 17.0638 28.8877 16.7451L27.9646 11.3649L31.8742 7.5551C32.1046 7.33051 32.1872 6.99363 32.0881 6.68812ZM26.4659 10.4632C26.267 10.6581 26.1761 10.9371 26.2232 11.2129L26.9316 15.3431L23.2226 13.3928C23.0988 13.3284 22.9642 13.2953 22.8288 13.2953C22.6933 13.2953 22.5588 13.3284 22.4349 13.3928L18.7259 15.3431L19.4343 11.2129C19.4814 10.9371 19.3906 10.6581 19.1916 10.4632L16.191 7.54024L20.3376 6.93748C20.6134 6.8962 20.8512 6.72445 20.9743 6.47509L22.8288 2.71653L24.6833 6.47509C24.8063 6.72445 25.0441 6.8962 25.3199 6.93748L29.4665 7.54024L26.4659 10.4632Z" fill="white"/>
<path fill-rule="evenodd" clip-rule="evenodd" d="M2.59595 20.2923C2.54145 20.611 2.67191 20.9313 2.932 21.1196C3.19458 21.3095 3.53972 21.3359 3.82293 21.184L7.60956 19.1924L11.3962 21.184C11.5201 21.2501 11.6555 21.2814 11.7901 21.2814C11.9651 21.2814 12.1393 21.2269 12.2871 21.1196C12.5472 20.9313 12.6777 20.611 12.6232 20.2923L11.8999 16.0763L14.964 13.0906C15.1944 12.866 15.277 12.5291 15.1779 12.2236C15.078 11.9164 14.8137 11.6935 14.495 11.6472L10.2609 11.0329L8.36755 7.1951C8.08351 6.62042 7.13562 6.62042 6.85158 7.1951L4.95826 11.0329L0.724098 11.6472C0.40538 11.6935 0.141157 11.9164 0.0412484 12.2236C-0.057835 12.5291 0.0247347 12.866 0.255103 13.0906L3.31926 16.0763L2.59595 20.2923ZM2.66283 13.0757L5.64111 12.643C5.91689 12.6017 6.15469 12.43 6.27772 12.1806L7.60956 9.48062L8.94141 12.1806C9.06444 12.43 9.30224 12.6017 9.57802 12.643L12.5563 13.0757L10.4012 15.1746C10.2022 15.3695 10.1114 15.6486 10.1585 15.9243L10.6671 18.8902L8.00342 17.4899C7.87957 17.4255 7.74498 17.3924 7.60956 17.3924C7.47415 17.3924 7.33956 17.4255 7.21571 17.4899L4.55202 18.8902L5.06065 15.9243C5.10771 15.6486 5.01688 15.3695 4.81789 15.1746L2.66283 13.0757Z" fill="white"/>
<path fill-rule="evenodd" clip-rule="evenodd" d="M44.9334 11.6472L40.6993 11.0329L38.806 7.1951C38.5219 6.62042 37.574 6.62042 37.29 7.1951L35.3967 11.0329L31.1625 11.6472C30.8438 11.6935 30.5796 11.9164 30.4796 12.2236C30.3806 12.5291 30.4631 12.866 30.6935 13.0906L33.7577 16.0763L33.0343 20.2923C32.9799 20.611 33.1103 20.9313 33.3704 21.1196C33.6321 21.3095 33.9765 21.3359 34.2613 21.184L38.048 19.1924L41.8346 21.184C41.9585 21.2501 42.0939 21.2814 42.2285 21.2814C42.4035 21.2814 42.5777 21.2269 42.7255 21.1196C42.9856 20.9313 43.1161 20.611 43.0616 20.2923L42.3383 16.0763L45.4024 13.0906C45.6328 12.866 45.7154 12.5291 45.6163 12.2236C45.5164 11.9164 45.2521 11.6935 44.9334 11.6472ZM40.8396 15.1746C40.6406 15.3695 40.5498 15.6486 40.5969 15.9243L41.1055 18.8902L38.4418 17.4899C38.318 17.4255 38.1834 17.3924 38.048 17.3924C37.9125 17.3924 37.778 17.4255 37.6541 17.4899L34.9904 18.8902L35.499 15.9243C35.5461 15.6486 35.4553 15.3695 35.2563 15.1746L33.1012 13.0757L36.0795 12.643C36.3553 12.6017 36.5931 12.43 36.7161 12.1806L38.048 9.48062L39.3798 12.1806C39.5028 12.43 39.7406 12.6017 40.0164 12.643L42.9947 13.0757L40.8396 15.1746Z" fill="white"/>
<path d="M22.8288 49C23.2957 49 23.6743 48.6215 23.6743 48.1545C23.6743 47.6875 23.2957 47.309 22.8288 47.309C22.3618 47.309 21.9833 47.6875 21.9833 48.1545C21.9833 48.6215 22.3618 49 22.8288 49Z" fill="white"/>
</svg>
