<svg width="46" height="49" viewBox="0 0 46 49" fill="none" xmlns="http://www.w3.org/2000/svg">
<path d="M11.4333 42.4667H2.45C1.80022 42.4667 1.17705 42.2085 0.717588 41.7491C0.258124 41.2896 0 40.6664 0 40.0167V8.16667C0 7.51689 0.258124 6.89372 0.717588 6.43425C1.17705 5.97479 1.80022 5.71667 2.45 5.71667H5.71667C5.93326 5.71667 6.14098 5.80271 6.29414 5.95586C6.44729 6.10902 6.53333 6.31674 6.53333 6.53333C6.53333 6.74993 6.44729 6.95765 6.29414 7.1108C6.14098 7.26396 5.93326 7.35 5.71667 7.35H2.45C2.23341 7.35 2.02568 7.43604 1.87253 7.5892C1.71937 7.74235 1.63333 7.95007 1.63333 8.16667V40.0167C1.63333 40.2333 1.71937 40.441 1.87253 40.5941C2.02568 40.7473 2.23341 40.8333 2.45 40.8333H11.4333C11.6499 40.8333 11.8576 40.9194 12.0108 41.0725C12.164 41.2257 12.25 41.4334 12.25 41.65C12.25 41.8666 12.164 42.0743 12.0108 42.2275C11.8576 42.3806 11.6499 42.4667 11.4333 42.4667Z" fill="white"/>
<path d="M30.2167 15.5167C30.0001 15.5167 29.7924 15.4306 29.6392 15.2775C29.486 15.1243 29.4 14.9166 29.4 14.7V8.16667C29.4 7.95007 29.314 7.74235 29.1608 7.5892C29.0077 7.43604 28.7999 7.35 28.5833 7.35H25.3167C25.1001 7.35 24.8923 7.26396 24.7392 7.1108C24.586 6.95765 24.5 6.74993 24.5 6.53333C24.5 6.31674 24.586 6.10902 24.7392 5.95586C24.8923 5.80271 25.1001 5.71667 25.3167 5.71667H28.5833C29.2331 5.71667 29.8563 5.97479 30.3157 6.43425C30.7752 6.89372 31.0333 7.51689 31.0333 8.16667V14.7C31.0333 14.9166 30.9473 15.1243 30.7941 15.2775C30.641 15.4306 30.4333 15.5167 30.2167 15.5167Z" fill="white"/>
<path d="M21.2333 9.8H9.8C9.15022 9.8 8.52705 9.54188 8.06759 9.08241C7.60812 8.62295 7.35 7.99978 7.35 7.35V5.71667C7.35 5.06689 7.60812 4.44372 8.06759 3.98426C8.52705 3.52479 9.15022 3.26667 9.8 3.26667H21.2333C21.8831 3.26667 22.5063 3.52479 22.9657 3.98426C23.4252 4.44372 23.6833 5.06689 23.6833 5.71667V7.35C23.6833 7.99978 23.4252 8.62295 22.9657 9.08241C22.5063 9.54188 21.8831 9.8 21.2333 9.8ZM9.8 4.9C9.58341 4.9 9.37568 4.98604 9.22253 5.1392C9.06938 5.29235 8.98333 5.50007 8.98333 5.71667V7.35C8.98333 7.56659 9.06938 7.77432 9.22253 7.92747C9.37568 8.08062 9.58341 8.16667 9.8 8.16667H21.2333C21.4499 8.16667 21.6576 8.08062 21.8108 7.92747C21.964 7.77432 22.05 7.56659 22.05 7.35V5.71667C22.05 5.50007 21.964 5.29235 21.8108 5.1392C21.6576 4.98604 21.4499 4.9 21.2333 4.9H9.8Z" fill="white"/>
<path d="M18.7833 4.9H12.25C12.0334 4.9 11.8257 4.81396 11.6725 4.6608C11.5194 4.50765 11.4333 4.29993 11.4333 4.08333V2.45C11.4333 1.80022 11.6915 1.17705 12.1509 0.717588C12.6104 0.258124 13.2336 0 13.8833 0H17.15C17.7998 0 18.4229 0.258124 18.8824 0.717588C19.3419 1.17705 19.6 1.80022 19.6 2.45V4.08333C19.6 4.29993 19.514 4.50765 19.3608 4.6608C19.2076 4.81396 18.9999 4.9 18.7833 4.9ZM13.0667 3.26667H17.9667V2.45C17.9667 2.23341 17.8806 2.02568 17.7275 1.87253C17.5743 1.71937 17.3666 1.63333 17.15 1.63333H13.8833C13.6667 1.63333 13.459 1.71937 13.3059 1.87253C13.1527 2.02568 13.0667 2.23341 13.0667 2.45V3.26667Z" fill="white"/>
<path d="M25.3167 40.0167C23.9383 40.0174 22.5783 39.7009 21.3418 39.0917C20.1054 38.4826 19.0257 37.5971 18.1864 36.5037C17.347 35.4104 16.7705 34.1386 16.5015 32.7868C16.2324 31.4349 16.2781 30.0393 16.6349 28.7079C16.9917 27.3766 17.6501 26.1451 18.5591 25.109C19.4681 24.0729 20.6033 23.2598 21.8769 22.7327C23.1505 22.2057 24.5283 21.9787 25.9037 22.0695C27.279 22.1603 28.6151 22.5663 29.8083 23.2562C29.9861 23.3692 30.1133 23.5465 30.1634 23.7511C30.2135 23.9557 30.1827 24.1717 30.0773 24.3541C29.9718 24.5365 29.8 24.6711 29.5978 24.7297C29.3955 24.7884 29.1783 24.7667 28.9917 24.6691C27.4462 23.7742 25.6281 23.4717 23.8761 23.818C22.1241 24.1642 20.5578 25.1357 19.469 26.5512C18.3801 27.9668 17.8431 29.7299 17.9579 31.5121C18.0727 33.2943 18.8316 34.9739 20.093 36.2381C21.3545 37.5022 23.0325 38.2646 24.8145 38.3832C26.5964 38.5018 28.3607 37.9686 29.7786 36.8827C31.1964 35.7969 32.1712 34.2327 32.5212 32.4814C32.8712 30.7302 32.5726 28.9114 31.681 27.364C31.5803 27.1771 31.5565 26.9583 31.6145 26.754C31.6725 26.5498 31.8077 26.3761 31.9916 26.2699C32.1754 26.1637 32.3934 26.1333 32.5993 26.1851C32.8052 26.2369 32.9829 26.3668 33.0946 26.5474C33.8815 27.9127 34.2955 29.4611 34.2948 31.037C34.2942 32.6129 33.879 34.1609 33.0909 35.5256C32.3029 36.8903 31.1697 38.0237 29.8051 38.812C28.4405 39.6003 26.8926 40.0158 25.3167 40.0167Z" fill="white"/>
<path d="M25.3167 46.55C22.893 46.5512 20.5027 45.9846 18.3374 44.8956C16.1721 43.8066 14.2921 42.2255 12.8479 40.2791C11.4037 38.3326 10.4356 36.0749 10.0211 33.687C9.6066 31.299 9.75727 28.8471 10.461 26.5278C11.1648 24.2085 12.4021 22.0864 14.0737 20.3314C15.7453 18.5764 17.8049 17.2374 20.0872 16.4218C22.3695 15.6061 24.8112 15.3364 27.2165 15.6343C29.6218 15.9323 31.9239 16.7895 33.9382 18.1374C34.0278 18.1969 34.1048 18.2735 34.1647 18.3628C34.2246 18.4521 34.2663 18.5524 34.2873 18.6579C34.3084 18.7634 34.3083 18.872 34.2873 18.9775C34.2663 19.0829 34.2246 19.1832 34.1647 19.2726C34.1048 19.3619 34.0278 19.4385 33.9382 19.498C33.8486 19.5575 33.7481 19.5987 33.6425 19.6193C33.537 19.6398 33.4284 19.6393 33.323 19.6178C33.2176 19.5963 33.1175 19.5542 33.0285 19.4938C30.16 17.5751 26.6803 16.7921 23.2664 17.2971C19.8526 17.8021 16.7486 19.559 14.5585 22.226C12.3684 24.893 11.2487 28.2794 11.4174 31.7263C11.586 35.1732 13.0308 38.4341 15.4708 40.8746C17.9108 43.3151 21.1714 44.7607 24.6183 44.93C28.0652 45.0994 31.4518 43.9805 34.1192 41.7909C36.7867 39.6014 38.5443 36.4978 39.05 33.084C39.5558 29.6702 38.7735 26.1904 36.8554 23.3215C36.7347 23.1416 36.6905 22.921 36.7325 22.7084C36.7744 22.4959 36.8991 22.3087 37.0791 22.188C37.2591 22.0674 37.4796 22.0232 37.6922 22.0651C37.9048 22.1071 38.092 22.2318 38.2127 22.4118C39.7758 24.7473 40.675 27.4636 40.8142 30.2705C40.9535 33.0774 40.3275 35.8694 39.0032 38.3481C37.6789 40.8269 35.7061 42.8993 33.2955 44.3439C30.8848 45.7885 28.127 46.551 25.3167 46.55Z" fill="white"/>
<path d="M25.3167 26.1333C25.1001 26.1333 24.8923 26.0473 24.7392 25.8941C24.586 25.741 24.5 25.5333 24.5 25.3167V13.8833C24.5 13.6667 24.586 13.459 24.7392 13.3059C24.8923 13.1527 25.1001 13.0667 25.3167 13.0667C25.5333 13.0667 25.741 13.1527 25.8941 13.3059C26.0473 13.459 26.1333 13.6667 26.1333 13.8833V25.3167C26.1333 25.5333 26.0473 25.741 25.8941 25.8941C25.741 26.0473 25.5333 26.1333 25.3167 26.1333Z" fill="white"/>
<path d="M19.6 31.85H8.16667C7.95007 31.85 7.74235 31.764 7.5892 31.6108C7.43604 31.4576 7.35 31.2499 7.35 31.0333C7.35 30.8167 7.43604 30.609 7.5892 30.4559C7.74235 30.3027 7.95007 30.2167 8.16667 30.2167H19.6C19.8166 30.2167 20.0243 30.3027 20.1775 30.4559C20.3306 30.609 20.4167 30.8167 20.4167 31.0333C20.4167 31.2499 20.3306 31.4576 20.1775 31.6108C20.0243 31.764 19.8166 31.85 19.6 31.85Z" fill="white"/>
<path d="M25.3167 49C25.1001 49 24.8923 48.914 24.7392 48.7608C24.586 48.6077 24.5 48.3999 24.5 48.1833V36.75C24.5 36.5334 24.586 36.3257 24.7392 36.1725C24.8923 36.0194 25.1001 35.9333 25.3167 35.9333C25.5333 35.9333 25.741 36.0194 25.8941 36.1725C26.0473 36.3257 26.1333 36.5334 26.1333 36.75V48.1833C26.1333 48.3999 26.0473 48.6077 25.8941 48.7608C25.741 48.914 25.5333 49 25.3167 49Z" fill="white"/>
<path d="M42.4667 31.85H31.0333C30.8167 31.85 30.609 31.764 30.4559 31.6108C30.3027 31.4576 30.2167 31.2499 30.2167 31.0333C30.2167 30.8167 30.3027 30.609 30.4559 30.4559C30.609 30.3027 30.8167 30.2167 31.0333 30.2167H42.4667C42.6833 30.2167 42.891 30.3027 43.0441 30.4559C43.1973 30.609 43.2833 30.8167 43.2833 31.0333C43.2833 31.2499 43.1973 31.4576 43.0441 31.6108C42.891 31.764 42.6833 31.85 42.4667 31.85Z" fill="white"/>
<path d="M25.3167 31.85C25.1552 31.85 24.9973 31.802 24.863 31.7123C24.7288 31.6226 24.6241 31.495 24.5623 31.3458C24.5005 31.1966 24.4844 31.0325 24.5159 30.8741C24.5474 30.7157 24.6251 30.5702 24.7393 30.4559L34.3 20.8952V16.3333C34.3 16.1168 34.3861 15.9091 34.5393 15.7559L39.4393 10.8559C39.5535 10.7418 39.699 10.664 39.8574 10.6325C40.0158 10.601 40.18 10.6172 40.3292 10.679C40.4784 10.7408 40.6059 10.8454 40.6956 10.9797C40.7854 11.114 40.8333 11.2718 40.8333 11.4333V15.5167H44.9167C45.0782 15.5167 45.236 15.5646 45.3703 15.6544C45.5046 15.7441 45.6092 15.8716 45.671 16.0208C45.7328 16.17 45.749 16.3342 45.7175 16.4926C45.686 16.651 45.6082 16.7965 45.494 16.9107L40.5941 21.8107C40.4409 21.9639 40.2332 22.05 40.0167 22.05H35.4548L25.8941 31.6107C25.7409 31.7639 25.5332 31.85 25.3167 31.85ZM37.0881 20.4167H39.6786L42.9452 17.15H40.3548L37.0881 20.4167ZM35.9333 16.6714V19.2619L39.2 15.9952V13.4048L35.9333 16.6714Z" fill="white"/>
<path d="M6.53333 14.7H4.9C4.68341 14.7 4.47568 14.614 4.32253 14.4608C4.16937 14.3076 4.08333 14.0999 4.08333 13.8833C4.08333 13.6667 4.16937 13.459 4.32253 13.3059C4.47568 13.1527 4.68341 13.0667 4.9 13.0667H6.53333C6.74993 13.0667 6.95765 13.1527 7.1108 13.3059C7.26396 13.459 7.35 13.6667 7.35 13.8833C7.35 14.0999 7.26396 14.3076 7.1108 14.4608C6.95765 14.614 6.74993 14.7 6.53333 14.7Z" fill="white"/>
<path d="M22.05 14.7H9.8C9.58341 14.7 9.37568 14.614 9.22253 14.4608C9.06938 14.3076 8.98333 14.0999 8.98333 13.8833C8.98333 13.6667 9.06938 13.459 9.22253 13.3059C9.37568 13.1527 9.58341 13.0667 9.8 13.0667H22.05C22.2666 13.0667 22.4743 13.1527 22.6275 13.3059C22.7806 13.459 22.8667 13.6667 22.8667 13.8833C22.8667 14.0999 22.7806 14.3076 22.6275 14.4608C22.4743 14.614 22.2666 14.7 22.05 14.7Z" fill="white"/>
<path d="M6.53333 22.05H4.9C4.68341 22.05 4.47568 21.964 4.32253 21.8108C4.16937 21.6576 4.08333 21.4499 4.08333 21.2333C4.08333 21.0167 4.16937 20.809 4.32253 20.6559C4.47568 20.5027 4.68341 20.4167 4.9 20.4167H6.53333C6.74993 20.4167 6.95765 20.5027 7.1108 20.6559C7.26396 20.809 7.35 21.0167 7.35 21.2333C7.35 21.4499 7.26396 21.6576 7.1108 21.8108C6.95765 21.964 6.74993 22.05 6.53333 22.05Z" fill="white"/>
<path d="M11.4333 22.05H9.8C9.58341 22.05 9.37568 21.964 9.22253 21.8108C9.06938 21.6576 8.98333 21.4499 8.98333 21.2333C8.98333 21.0167 9.06938 20.809 9.22253 20.6559C9.37568 20.5027 9.58341 20.4167 9.8 20.4167H11.4333C11.6499 20.4167 11.8576 20.5027 12.0108 20.6559C12.164 20.809 12.25 21.0167 12.25 21.2333C12.25 21.4499 12.164 21.6576 12.0108 21.8108C11.8576 21.964 11.6499 22.05 11.4333 22.05Z" fill="white"/>
</svg>
