<svg width="50" height="49" viewBox="0 0 50 49" fill="none" xmlns="http://www.w3.org/2000/svg">
<path d="M4.56718 35.5185C4.45201 35.3199 4.2636 35.1743 4.04235 35.113C3.82111 35.0517 3.58465 35.0795 3.38367 35.1905C3.18269 35.3014 3.0332 35.4867 2.96724 35.7067C2.90129 35.9266 2.92413 36.1636 3.03086 36.3668C12.1649 53.2131 36.9386 53.2092 46.0695 36.3665C46.1814 36.1628 46.208 35.9229 46.1433 35.6997C46.0786 35.4764 45.928 35.2879 45.7245 35.1756C45.521 35.0633 45.2812 35.0363 45.0579 35.1006C44.8345 35.1649 44.6457 35.3152 44.5331 35.5185C42.5628 39.0938 39.6694 42.075 36.1546 44.1512C32.6398 46.2274 28.6323 47.3227 24.5501 47.3227C20.4679 47.3227 16.4604 46.2274 12.9456 44.1512C9.43081 42.075 6.53745 39.0938 4.56718 35.5185Z" fill="white"/>
<path d="M41.8528 9.66298C42.0055 9.83443 42.2193 9.93921 42.4484 9.95484C42.6775 9.97046 42.9035 9.89569 43.0781 9.74657C43.2526 9.59744 43.3618 9.38584 43.3822 9.15715C43.4025 8.92846 43.3324 8.70091 43.1869 8.52331C33.7992 -2.84158 15.3 -2.84074 5.91333 8.52365C5.76746 8.70121 5.69707 8.92892 5.7173 9.15782C5.73753 9.38673 5.84677 9.59856 6.02152 9.74779C6.19627 9.89701 6.42259 9.97172 6.65184 9.95586C6.88109 9.93999 7.09497 9.83482 7.2475 9.66294C15.9636 -0.887398 33.1379 -0.886284 41.8528 9.66298Z" fill="white"/>
<path d="M13.0767 8.9942C12.8949 9.13475 12.7755 9.34102 12.7441 9.56867C12.7127 9.79633 12.7719 10.0272 12.909 10.2117C13.046 10.3962 13.2499 10.5196 13.4769 10.5553C13.7039 10.591 13.9359 10.5363 14.123 10.4029C17.1434 8.17581 20.7975 6.97432 24.5502 6.97434C28.3029 6.97436 31.957 8.17589 34.9773 10.403C35.1645 10.536 35.3963 10.5905 35.6231 10.5546C35.8499 10.5187 36.0536 10.3953 36.1905 10.211C36.3273 10.0266 36.3865 9.79599 36.3553 9.56851C36.3241 9.34103 36.205 9.13484 36.0235 8.99417C32.7003 6.54315 28.6795 5.22077 24.5501 5.22078C20.4208 5.22078 16.4 6.54317 13.0767 8.9942Z" fill="white"/>
<path d="M24.5501 43.8129C27.4613 43.8189 30.3356 43.1625 32.9555 41.8933C35.5754 40.6242 37.8722 38.7756 39.6721 36.4876C39.8112 36.3046 39.8729 36.0745 39.8442 35.8465C39.8154 35.6185 39.6984 35.4108 39.5182 35.2682C39.3381 35.1255 39.1092 35.0591 38.8806 35.0834C38.6521 35.1076 38.4422 35.2204 38.296 35.3977C31.5657 44.2221 17.5337 44.2211 10.8043 35.3974C10.658 35.2203 10.4481 35.1076 10.2196 35.0835C9.99114 35.0594 9.76232 35.1258 9.58224 35.2685C9.40217 35.4111 9.28519 35.6187 9.2564 35.8466C9.2276 36.0745 9.28929 36.3047 9.42823 36.4876C11.2281 38.7757 13.5249 40.6242 16.1448 41.8933C18.7647 43.1625 21.639 43.8189 24.5501 43.8129Z" fill="white"/>
<path d="M0.445225 26.763C0.136664 27.3494 -0.0161729 28.0051 0.00135442 28.6675C0.0188817 29.3298 0.206186 29.9766 0.545325 30.5458C0.884465 31.115 1.36408 31.5876 1.93823 31.9183C2.51237 32.249 3.16182 32.4268 3.82436 32.4346L13.588 32.4346C13.5847 33.0137 13.6955 33.5879 13.9141 34.1241C14.1327 34.6604 14.4549 35.1484 14.8622 35.5601C15.2695 35.9718 15.7539 36.2992 16.2878 36.5236C16.8217 36.7481 17.3946 36.8651 17.9737 36.868L31.1266 36.868C31.7064 36.8677 32.2805 36.7524 32.8155 36.5289C33.3506 36.3054 33.836 35.9781 34.2438 35.5658C34.6516 35.1536 34.9737 34.6646 35.1914 34.1272C35.4091 33.5897 35.5182 33.0145 35.5122 32.4346H45.276C45.9385 32.4268 46.588 32.2491 47.1621 31.9183C47.7363 31.5876 48.2159 31.115 48.555 30.5458C48.8941 29.9765 49.0814 29.3298 49.0989 28.6674C49.1164 28.0051 48.9636 27.3493 48.655 26.763C47.4554 24.5406 45.4692 22.8463 43.0855 22.0122C43.7518 21.4991 44.2915 20.84 44.6631 20.0855C45.0347 19.3311 45.2283 18.5015 45.2289 17.6605C44.9674 10.3695 34.4708 10.3693 34.2105 17.6606C34.2111 18.5017 34.4048 19.3315 34.7765 20.086C35.1483 20.8405 35.6882 21.4997 36.3547 22.0128C34.2041 22.7702 32.3726 24.2324 31.1577 26.1619C30.2474 25.5506 29.2564 25.0688 28.2133 24.7306C29.0461 24.1447 29.7258 23.3672 30.1953 22.4637C30.6648 21.5602 30.9103 20.557 30.9111 19.5388C30.6139 11.1229 18.4873 11.1196 18.1892 19.5389C18.19 20.5571 18.4355 21.5602 18.905 22.4637C19.3745 23.3672 20.0542 24.1447 20.887 24.7306C19.8434 25.069 18.852 25.551 17.9413 26.1627C16.7243 24.2352 14.8939 22.7736 12.7448 22.0133C13.4116 21.5003 13.9517 20.841 14.3236 20.0864C14.6954 19.3317 14.8892 18.5018 14.8898 17.6605C14.6372 10.3766 4.12906 10.3655 3.87138 17.6606C3.87205 18.5015 4.06563 19.3311 4.43723 20.0855C4.80883 20.8399 5.34854 21.4991 6.01484 22.0121C3.6311 22.8463 1.6448 24.5406 0.445225 26.763ZM35.9653 17.6606C35.9748 16.6711 36.3745 15.7253 37.0775 15.0289C37.7806 14.3326 38.7302 13.9419 39.7197 13.9419C40.7093 13.9419 41.6588 14.3326 42.3618 15.029C43.0649 15.7254 43.4646 16.6711 43.474 17.6606C43.4646 18.6501 43.0648 19.5959 42.3618 20.2923C41.6587 20.9886 40.7092 21.3793 39.7196 21.3793C38.7301 21.3793 37.7805 20.9886 37.0775 20.2922C36.3744 19.5958 35.9747 18.6501 35.9653 17.6606ZM39.7134 23.1695C41.2313 23.1683 42.721 23.5793 44.0236 24.3586C45.3261 25.1379 46.3926 26.2562 47.1093 27.5942C47.2774 27.9128 47.3609 28.2692 47.3518 28.6293C47.3427 28.9894 47.2413 29.3411 47.0573 29.6507C46.8733 29.9604 46.6129 30.2176 46.3009 30.3978C45.989 30.578 45.6361 30.675 45.2759 30.6797H35.1222C34.4909 29.3809 33.6156 28.2156 32.544 27.2475C33.2869 26.0081 34.3372 24.9815 35.5932 24.267C36.8492 23.5526 38.2685 23.1745 39.7134 23.1695ZM19.9441 19.5388C20.1376 13.4516 28.9635 13.4531 29.1562 19.5389C28.9627 25.6266 20.1366 25.6251 19.9441 19.5388ZM33.4423 31.2179C33.6548 31.6201 33.7605 32.0702 33.749 32.525C33.7376 32.9798 33.6095 33.424 33.377 33.8151C33.1446 34.2061 32.8155 34.5309 32.4214 34.7582C32.0273 34.9855 31.5814 35.1077 31.1265 35.1131L17.9737 35.1132C17.5171 35.1123 17.0685 34.9928 16.6718 34.7666C16.2751 34.5404 15.9439 34.2151 15.7106 33.8226C15.4772 33.4301 15.3497 32.9838 15.3405 32.5272C15.3313 32.0707 15.4407 31.6195 15.658 31.2179C19.3353 24.1785 29.7659 24.1792 33.4423 31.2179ZM5.62627 17.6605C5.6356 16.671 6.03527 15.7251 6.73834 15.0286C7.44141 14.3321 8.39103 13.9414 9.38066 13.9414C10.3703 13.9414 11.3199 14.3322 12.023 15.0287C12.726 15.7251 13.1257 16.671 13.135 17.6606C13.1256 18.6502 12.726 19.5961 12.0229 20.2926C11.3198 20.989 10.3702 21.3797 9.38059 21.3797C8.39095 21.3797 7.44134 20.989 6.73829 20.2925C6.03523 19.596 5.63558 18.6501 5.62627 17.6605ZM9.37243 23.1693C10.8196 23.1733 12.2412 23.5509 13.4996 24.2655C14.7581 24.9801 15.8107 26.0075 16.5556 27.2482C15.4844 28.2162 14.6093 29.3812 13.9781 30.6797H3.82428C3.46411 30.675 3.11118 30.5779 2.79929 30.3978C2.48739 30.2176 2.22699 29.9603 2.04301 29.6507C1.85903 29.341 1.75763 28.9893 1.74854 28.6292C1.73944 28.2691 1.82295 27.9127 1.99106 27.5941C2.70659 26.2583 3.77084 25.1414 5.0706 24.3622C6.37036 23.5831 7.85702 23.1708 9.37243 23.1693Z" fill="white"/>
</svg>
